<?xml version="1.0" encoding="UTF-8" standalone="no"?>
<!-- Created with Inkscape (http://www.inkscape.org/) -->

<svg
   xmlns:dc="http://purl.org/dc/elements/1.1/"
   xmlns:cc="http://creativecommons.org/ns#"
   xmlns:rdf="http://www.w3.org/1999/02/22-rdf-syntax-ns#"
   xmlns:svg="http://www.w3.org/2000/svg"
   xmlns="http://www.w3.org/2000/svg"
   xmlns:sodipodi="http://sodipodi.sourceforge.net/DTD/sodipodi-0.dtd"
   xmlns:inkscape="http://www.inkscape.org/namespaces/inkscape"
   width="186.61246mm"
   height="121.92725mm"
   viewBox="0 0 186.61246 121.92725"
   version="1.1"
   id="svg8"
   inkscape:version="0.92.3 (2405546, 2018-03-11)"
   sodipodi:docname="imm-logo.svg">
  <defs
     id="defs2" />
  <sodipodi:namedview
     id="base"
     pagecolor="#ffffff"
     bordercolor="#666666"
     borderopacity="1.0"
     inkscape:pageopacity="0.0"
     inkscape:pageshadow="2"
     inkscape:zoom="0.39197531"
     inkscape:cx="371.52114"
     inkscape:cy="187.54671"
     inkscape:document-units="mm"
     inkscape:current-layer="layer1"
     showgrid="false"
     inkscape:window-width="1853"
     inkscape:window-height="1025"
     inkscape:window-x="67"
     inkscape:window-y="27"
     inkscape:window-maximized="1" />
  <metadata
     id="metadata5">
    <rdf:RDF>
      <cc:Work
         rdf:about="">
        <dc:format>image/svg+xml</dc:format>
        <dc:type
           rdf:resource="http://purl.org/dc/dcmitype/StillImage" />
        <dc:title></dc:title>
      </cc:Work>
    </rdf:RDF>
  </metadata>
  <g
     inkscape:label="Layer 1"
     inkscape:groupmode="layer"
     id="layer1"
     transform="translate(-6.4630491,-38.01071)">
    <circle
       style="fill:#000000;fill-opacity:1;stroke:none;stroke-width:8;stroke-miterlimit:4;stroke-dasharray:none;stroke-opacity:1"
       id="path4530"
       cx="23.755585"
       cy="-54.263683"
       r="16.252974"
       transform="scale(1,-1)" />
    <path
       style="fill:#000000;fill-opacity:1;stroke:#000000;stroke-width:3.70439219;stroke-miterlimit:4;stroke-dasharray:none;stroke-opacity:1"
       d="M 23.755591,79.878905 A 15.440347,51.272612 0 0 0 8.3152452,131.15159 15.440347,51.272612 0 0 0 10.468449,157.14855 h 26.57614 A 15.440347,51.272612 0 0 0 39.195938,131.15159 15.440347,51.272612 0 0 0 23.755591,79.878905 Z"
       id="path4534"
       inkscape:connector-curvature="0" />
    <path
       style="fill:#000000;fill-opacity:1;stroke:#000000;stroke-width:4.3801322;stroke-miterlimit:4;stroke-dasharray:none;stroke-opacity:1"
       d="M 59.513152,61.389016 V 156.39304 H 79.546037 V 81.421903 Z"
       id="rect4577"
       inkscape:connector-curvature="0" />
    <path
       style="fill:#000000;fill-opacity:1;stroke:#000000;stroke-width:3.05713463;stroke-miterlimit:4;stroke-dasharray:none;stroke-opacity:1"
       d="m 162.89914,44.839291 -48.76301,48.762875 9.88686,9.886814 48.76296,-48.762885 z"
       id="rect4577-7-1"
       inkscape:connector-curvature="0" />
    <path
       style="fill:#000000;fill-opacity:1;stroke:#000000;stroke-width:4;stroke-miterlimit:4;stroke-dasharray:none;stroke-opacity:1"
       d="m 116.46731,137.45621 a 11.773958,11.773958 0 0 0 -11.77396,11.77396 11.773958,11.773958 0 0 0 2.96106,7.79125 l 3.67833,-3.67833 a 6.3459878,6.3459878 0 0 1 -1.2113,-3.71605 6.3459878,6.3459878 0 0 1 6.34587,-6.34586 6.3459878,6.3459878 0 0 1 6.34587,6.34586 6.3459878,6.3459878 0 0 1 -1.21027,3.71709 l 3.67472,3.67471 a 11.773958,11.773958 0 0 0 2.96364,-7.78867 11.773958,11.773958 0 0 0 -11.77396,-11.77396 z"
       id="path4690"
       inkscape:connector-curvature="0" />
    <path
       inkscape:connector-curvature="0"
       style="fill:#000000;fill-opacity:1;stroke:#000000;stroke-width:4.3801322;stroke-miterlimit:4;stroke-dasharray:none;stroke-opacity:1"
       d="m 172.43685,62.64831 v 95.00402 H 152.40396 V 82.681197 Z"
       id="rect4577-1" />
    <path
       style="fill:#000000;fill-opacity:1;stroke:#000000;stroke-width:3.05713463;stroke-miterlimit:4;stroke-dasharray:none;stroke-opacity:1"
       d="M 60.161014,54.726102 108.9238,103.48897 118.81061,93.602171 70.047819,44.839298 Z"
       id="rect4577-7"
       inkscape:connector-curvature="0" />
    <path
       style="fill:#000000;fill-opacity:1;stroke:#000000;stroke-width:2.14987111;stroke-miterlimit:4;stroke-dasharray:none;stroke-opacity:1"
       d="m 109.95333,103.43847 1e-5,36.60114 h 13.02796 v -36.60114 z"
       id="rect4577-7-5"
       inkscape:connector-curvature="0" />
    <path
       style="fill:#000000;fill-opacity:0.50196078;fill-rule:evenodd;stroke:none;stroke-width:1;stroke-linecap:butt;stroke-linejoin:miter;stroke-miterlimit:4;stroke-dasharray:none;stroke-opacity:1"
       d="M 85.499521,86.338158 V 158.74147 H 95.976486 V 97.002212 Z"
       id="path5125"
       inkscape:connector-curvature="0" />
    <path
       style="fill:#000000;fill-opacity:0.50196078;fill-rule:evenodd;stroke:none;stroke-width:1;stroke-linecap:butt;stroke-linejoin:miter;stroke-miterlimit:4;stroke-dasharray:none;stroke-opacity:1"
       d="M 73.525847,42.933588 116.18206,85.589802 123.0108,78.761065 86.902686,42.652955 Z"
       id="path5127"
       inkscape:connector-curvature="0" />
    <path
       style="fill:#000000;fill-opacity:0.50196078;fill-rule:evenodd;stroke:none;stroke-width:1;stroke-linecap:butt;stroke-linejoin:miter;stroke-miterlimit:4;stroke-dasharray:none;stroke-opacity:1"
       d="m 167.81853,42.559409 h 13.84457 l 11.4124,11.41241 V 158.55438 H 176.79879 V 54.158906 L 165.47993,42.840042 Z"
       id="path5129"
       inkscape:connector-curvature="0" />
    <circle
       style="fill:#000000;fill-opacity:1;stroke:#000000;stroke-width:4.24774456;stroke-miterlimit:4;stroke-dasharray:none;stroke-opacity:1"
       id="path4530-3-6-5"
       transform="scale(1,-1)"
       r="10.837434"
       cy="-100.67917"
       cx="116.46745" />
    <circle
       transform="scale(1,-1)"
       r="5.4187169"
       cy="-100.67917"
       cx="116.46745"
       id="circle5173"
       style="fill:#ffffff;fill-opacity:1;stroke:none;stroke-width:2.12387228;stroke-miterlimit:4;stroke-dasharray:none;stroke-opacity:1" />
  </g>
</svg>
