<?xml version="1.0" encoding="UTF-8" standalone="no"?>
<!-- Created with Inkscape (http://www.inkscape.org/) -->

<svg
   xmlns:dc="http://purl.org/dc/elements/1.1/"
   xmlns:cc="http://creativecommons.org/ns#"
   xmlns:rdf="http://www.w3.org/1999/02/22-rdf-syntax-ns#"
   xmlns:svg="http://www.w3.org/2000/svg"
   xmlns="http://www.w3.org/2000/svg"
   xmlns:sodipodi="http://sodipodi.sourceforge.net/DTD/sodipodi-0.dtd"
   xmlns:inkscape="http://www.inkscape.org/namespaces/inkscape"
   width="1600"
   height="1600"
   viewBox="0 0 423.33333 423.33333"
   version="1.1"
   id="svg8"
   inkscape:version="0.92.3 (2405546, 2018-03-11)"
   sodipodi:docname="imm-logo-v2.svg.2021_01_22_09_28_45.0-dd-square.svg"
   inkscape:export-filename="/home/jamie/imm-logo-v2.svg.2021_01_22_09_28_45.0-dd-square.svg.png"
   inkscape:export-xdpi="96"
   inkscape:export-ydpi="96">
  <defs
     id="defs2" />
  <sodipodi:namedview
     id="base"
     pagecolor="#ffffff"
     bordercolor="#666666"
     borderopacity="1.0"
     inkscape:pageopacity="0.0"
     inkscape:pageshadow="2"
     inkscape:zoom="0.5301205"
     inkscape:cx="696.00012"
     inkscape:cy="887.63637"
     inkscape:document-units="mm"
     inkscape:current-layer="layer1"
     showgrid="true"
     inkscape:window-width="1853"
     inkscape:window-height="1025"
     inkscape:window-x="67"
     inkscape:window-y="27"
     inkscape:window-maximized="1"
     fit-margin-top="20"
     fit-margin-left="20"
     fit-margin-right="20"
     fit-margin-bottom="20"
     units="px">
    <inkscape:grid
       type="xygrid"
       id="grid855" />
  </sodipodi:namedview>
  <metadata
     id="metadata5">
    <rdf:RDF>
      <cc:Work
         rdf:about="">
        <dc:format>image/svg+xml</dc:format>
        <dc:type
           rdf:resource="http://purl.org/dc/dcmitype/StillImage" />
        <dc:title></dc:title>
      </cc:Work>
    </rdf:RDF>
  </metadata>
  <g
     inkscape:label="Layer 1"
     inkscape:groupmode="layer"
     id="layer1"
     transform="translate(13.536951,243.39536)">
    <rect
       style="fill:#1f4899;fill-opacity:1;stroke:none;stroke-width:0.59825903;stroke-miterlimit:4;stroke-dasharray:none;stroke-opacity:1"
       id="rect855"
       width="270.93332"
       height="270.93332"
       x="57.371384"
       y="-166.13701"
       ry="28.574982"
       rx="28.574982" />
    <text
       xml:space="preserve"
       style="font-style:normal;font-variant:normal;font-weight:normal;font-stretch:normal;font-size:10.58333302px;line-height:125%;font-family:'URW Gothic L';-inkscape-font-specification:'URW Gothic L';letter-spacing:0px;word-spacing:0px;fill:#000000;fill-opacity:1;stroke:none;stroke-width:0.26458332px;stroke-linecap:butt;stroke-linejoin:miter;stroke-opacity:1"
       x="145.16432"
       y="34.601013"
       id="text836"><tspan
         sodipodi:role="line"
         id="tspan834"
         x="145.16432"
         y="44.432098"
         style="stroke-width:0.26458332px" /></text>
    <g
       id="g851"
       transform="translate(96.837503,-123.03125)"
       style="fill:#ffffff;fill-opacity:1">
      <path
         inkscape:connector-curvature="0"
         id="path4615"
         transform="matrix(0.26458333,0,0,0.26458333,-13.536951,18.01071)"
         d="m 320,102.00781 -40,40 174.53906,174.53907 A 40.487611,40.487599 0 0 0 470,347.84375 v 114.51172 a 40.487607,40.487607 0 0 0 -14.48828,31.0293 40.487607,40.487607 0 0 0 11.38281,28.08203 l 14.45313,-14.45508 a 20.026953,20.026953 0 0 1 -5.375,-13.62695 A 20.026953,20.026953 0 0 1 496,473.35938 a 20.026953,20.026953 0 0 1 20.02734,20.02539 20.026953,20.026953 0 0 1 -5.3789,13.62304 l 14.48437,14.48438 A 40.487607,40.487607 0 0 0 536.48828,493.38477 40.487607,40.487607 0 0 0 520,460.83594 V 347.79688 a 40.487611,40.487599 0 0 0 15.46875,-31.25782 L 710,142.00781 l -40,-40 -173.56445,173.56446 A 40.487611,40.487599 0 0 0 495,275.52148 a 40.487611,40.487599 0 0 0 -1.41602,0.0703 z M 495,295.98242 A 20.026956,20.02695 0 0 1 515.02734,316.00781 20.026956,20.02695 0 0 1 495,336.03516 20.026956,20.02695 0 0 1 474.97266,316.00781 20.026956,20.02695 0 0 1 495,295.98242 Z"
         style="fill:#ffffff;fill-opacity:1;stroke:none;stroke-width:1.02489209;stroke-miterlimit:4;stroke-dasharray:none;stroke-opacity:1" />
      <rect
         y="26.479637"
         x="176.96304"
         height="15.875"
         width="15.875"
         id="rect4599"
         style="fill:#ffffff;fill-opacity:1;stroke:none;stroke-width:8;stroke-miterlimit:4;stroke-dasharray:none;stroke-opacity:1" />
      <path
         sodipodi:nodetypes="ccccc"
         inkscape:connector-curvature="0"
         id="path4603"
         d="M 60.546381,63.521302 84.358882,88.656721 V 156.12547 H 60.546381 Z"
         style="fill:#ffffff;fill-opacity:1;fill-rule:evenodd;stroke:none;stroke-width:0.26458332px;stroke-linecap:butt;stroke-linejoin:miter;stroke-opacity:1" />
      <path
         sodipodi:nodetypes="ccccc"
         inkscape:connector-curvature="0"
         id="path4607"
         d="m 174.31721,63.521302 -23.81249,23.812503 v 68.791665 h 23.81249 z"
         style="fill:#ffffff;fill-opacity:1;fill-rule:evenodd;stroke:none;stroke-width:0.26499999;stroke-linecap:butt;stroke-linejoin:miter;stroke-miterlimit:4;stroke-dasharray:none;stroke-opacity:1" />
      <ellipse
         ry="16.404169"
         rx="16.404167"
         transform="scale(1,-1)"
         cy="-53.996307"
         cx="26.150551"
         id="path4530-7"
         style="fill:#ffffff;fill-opacity:1;stroke:none;stroke-width:8.07442093;stroke-miterlimit:4;stroke-dasharray:none;stroke-opacity:1" />
      <ellipse
         ry="16.404169"
         rx="16.404167"
         transform="scale(1,-1)"
         cy="-97.38797"
         cx="26.150549"
         id="path4530-7-3"
         style="fill:#ffffff;fill-opacity:1;stroke:none;stroke-width:8.07442093;stroke-miterlimit:4;stroke-dasharray:none;stroke-opacity:1" />
      <rect
         y="97.38797"
         x="9.7463827"
         height="58.737499"
         width="32.808334"
         id="rect836"
         style="fill:#ffffff;fill-opacity:1;stroke:none;stroke-width:0.25915411;stroke-miterlimit:4;stroke-dasharray:none;stroke-opacity:1" />
    </g>
  </g>
</svg>
