<?xml version="1.0" encoding="UTF-8" standalone="no"?>
<!-- Created with Inkscape (http://www.inkscape.org/) -->

<svg
   xmlns:dc="http://purl.org/dc/elements/1.1/"
   xmlns:cc="http://creativecommons.org/ns#"
   xmlns:rdf="http://www.w3.org/1999/02/22-rdf-syntax-ns#"
   xmlns:svg="http://www.w3.org/2000/svg"
   xmlns="http://www.w3.org/2000/svg"
   xmlns:sodipodi="http://sodipodi.sourceforge.net/DTD/sodipodi-0.dtd"
   xmlns:inkscape="http://www.inkscape.org/namespaces/inkscape"
   width="226.61246mm"
   height="161.92726mm"
   viewBox="0 0 226.61246 161.92726"
   version="1.1"
   id="svg8"
   inkscape:version="0.92.3 (2405546, 2018-03-11)"
   sodipodi:docname="imm-logo-v2.svg.2021_01_22_09_28_45.0-dd.svg"
   inkscape:export-filename="/home/jamie/imm-logo-v2.svg.2021_01_22_09_28_45.0-dd.svg.png"
   inkscape:export-xdpi="96"
   inkscape:export-ydpi="96">
  <defs
     id="defs2" />
  <sodipodi:namedview
     id="base"
     pagecolor="#ffffff"
     bordercolor="#666666"
     borderopacity="1.0"
     inkscape:pageopacity="0.0"
     inkscape:pageshadow="2"
     inkscape:zoom="0.78395062"
     inkscape:cx="118.10683"
     inkscape:cy="297.12813"
     inkscape:document-units="mm"
     inkscape:current-layer="layer1"
     showgrid="true"
     inkscape:window-width="1853"
     inkscape:window-height="1025"
     inkscape:window-x="67"
     inkscape:window-y="27"
     inkscape:window-maximized="1"
     fit-margin-top="20"
     fit-margin-left="20"
     fit-margin-right="20"
     fit-margin-bottom="20">
    <inkscape:grid
       type="xygrid"
       id="grid855" />
  </sodipodi:namedview>
  <metadata
     id="metadata5">
    <rdf:RDF>
      <cc:Work
         rdf:about="">
        <dc:format>image/svg+xml</dc:format>
        <dc:type
           rdf:resource="http://purl.org/dc/dcmitype/StillImage" />
        <dc:title />
      </cc:Work>
    </rdf:RDF>
  </metadata>
  <g
     inkscape:label="Layer 1"
     inkscape:groupmode="layer"
     id="layer1"
     transform="translate(13.536951,-18.01071)">
    <path
       style="fill:#1f4899;fill-opacity:1;stroke:none;stroke-width:1.02489209;stroke-miterlimit:4;stroke-dasharray:none;stroke-opacity:1"
       d="M 320 102.00781 L 280 142.00781 L 454.53906 316.54688 A 40.487611 40.487599 0 0 0 470 347.84375 L 470 462.35547 A 40.487607 40.487607 0 0 0 455.51172 493.38477 A 40.487607 40.487607 0 0 0 466.89453 521.4668 L 481.34766 507.01172 A 20.026953 20.026953 0 0 1 475.97266 493.38477 A 20.026953 20.026953 0 0 1 496 473.35938 A 20.026953 20.026953 0 0 1 516.02734 493.38477 A 20.026953 20.026953 0 0 1 510.64844 507.00781 L 525.13281 521.49219 A 40.487607 40.487607 0 0 0 536.48828 493.38477 A 40.487607 40.487607 0 0 0 520 460.83594 L 520 347.79688 A 40.487611 40.487599 0 0 0 535.46875 316.53906 L 710 142.00781 L 670 102.00781 L 496.43555 275.57227 A 40.487611 40.487599 0 0 0 495 275.52148 A 40.487611 40.487599 0 0 0 493.58398 275.5918 L 320 102.00781 z M 495 295.98242 A 20.026956 20.02695 0 0 1 515.02734 316.00781 A 20.026956 20.02695 0 0 1 495 336.03516 A 20.026956 20.02695 0 0 1 474.97266 316.00781 A 20.026956 20.02695 0 0 1 495 295.98242 z "
       transform="matrix(0.26458333,0,0,0.26458333,-13.536951,18.01071)"
       id="path4615" />
    <text
       xml:space="preserve"
       style="font-style:normal;font-variant:normal;font-weight:normal;font-stretch:normal;font-size:10.58333302px;line-height:125%;font-family:'URW Gothic L';-inkscape-font-specification:'URW Gothic L';letter-spacing:0px;word-spacing:0px;fill:#000000;fill-opacity:1;stroke:none;stroke-width:0.26458332px;stroke-linecap:butt;stroke-linejoin:miter;stroke-opacity:1"
       x="145.16432"
       y="34.601013"
       id="text836"><tspan
         sodipodi:role="line"
         id="tspan834"
         x="145.16432"
         y="44.432098"
         style="stroke-width:0.26458332px" /></text>
    <rect
       style="fill:#1f4899;fill-opacity:1;stroke:none;stroke-width:8;stroke-miterlimit:4;stroke-dasharray:none;stroke-opacity:1"
       id="rect4599"
       width="15.875"
       height="15.875"
       x="176.96304"
       y="26.479637" />
    <path
       style="fill:#1f4899;fill-opacity:1;fill-rule:evenodd;stroke:none;stroke-width:0.26458332px;stroke-linecap:butt;stroke-linejoin:miter;stroke-opacity:1"
       d="m 60.546381,63.521302 23.812501,25.135419 v 67.468749 l -23.812501,0 z"
       id="path4603"
       inkscape:connector-curvature="0"
       sodipodi:nodetypes="ccccc" />
    <path
       style="fill:#1f4899;fill-opacity:1;fill-rule:evenodd;stroke:none;stroke-width:0.26499999;stroke-linecap:butt;stroke-linejoin:miter;stroke-miterlimit:4;stroke-dasharray:none;stroke-opacity:1"
       d="m 174.31721,63.521302 -23.81249,23.812503 v 68.791665 l 23.81249,0 z"
       id="path4607"
       inkscape:connector-curvature="0"
       sodipodi:nodetypes="ccccc" />
    <ellipse
       style="fill:#1f4899;fill-opacity:1;stroke:none;stroke-width:8.07442093;stroke-miterlimit:4;stroke-dasharray:none;stroke-opacity:1"
       id="path4530-7"
       cx="26.150551"
       cy="-53.996307"
       transform="scale(1,-1)"
       rx="16.404167"
       ry="16.404169" />
    <ellipse
       style="fill:#1f4899;fill-opacity:1;stroke:none;stroke-width:8.07442093;stroke-miterlimit:4;stroke-dasharray:none;stroke-opacity:1"
       id="path4530-7-3"
       cx="26.150549"
       cy="-97.38797"
       transform="scale(1,-1)"
       rx="16.404167"
       ry="16.404169" />
    <rect
       style="fill:#1f4899;fill-opacity:1;stroke:none;stroke-width:0.25915411;stroke-miterlimit:4;stroke-dasharray:none;stroke-opacity:1"
       id="rect836"
       width="32.808334"
       height="58.737499"
       x="9.7463827"
       y="97.38797" />
  </g>
</svg>
